<svg xmlns="http://www.w3.org/2000/svg" viewBox="0 0 48 48">
  <path fill-rule="evenodd" d="M10.5 0A1.5 1.5 0 0 1 12 1.5V3h24V1.5a1.5 1.5 0 0 1 3 0V3h3a6 6 0 0 1 6 6v33a6 6 0 0 1-6 6H6a6 6 0 0 1-6-6V9a6 6 0 0 1 6-6h3V1.5A1.5 1.5 0 0 1 10.5 0Zm29.862 9H7.635C6.735 9 6 9.672 6 10.5v3c0 .828.732 1.5 1.635 1.5h32.73c.9 0 1.635-.672 1.635-1.5v-3c0-.828-.732-1.5-1.638-1.5Zm-7.8 15.438a1.502 1.502 0 0 1 0 2.124l-9 9a1.5 1.5 0 0 1-2.124 0l-4.5-4.5a1.502 1.502 0 1 1 2.124-2.124l3.438 3.441 7.938-7.941a1.502 1.502 0 0 1 2.124 0Z" clip-rule="evenodd"/>
</svg>
