<svg xmlns="http://www.w3.org/2000/svg" fill="none" viewBox="0 0 16 14">
  <path fill="#fff" d="M16 1.54a6.57 6.57 0 0 1-1.885.517A3.297 3.297 0 0 0 15.559.241a6.569 6.569 0 0 1-2.086.796A3.286 3.286 0 0 0 7.88 4.03 9.323 9.323 0 0 1 1.115.602 3.287 3.287 0 0 0 2.13 4.984a3.276 3.276 0 0 1-1.486-.41C.61 6.093 1.7 7.515 3.28 7.833a3.29 3.29 0 0 1-1.483.055 3.287 3.287 0 0 0 3.067 2.279A6.606 6.606 0 0 1 0 11.529a9.284 9.284 0 0 0 5.03 1.475c6.097 0 9.54-5.148 9.331-9.765A6.617 6.617 0 0 0 16 1.54Z"/>
</svg>
